HIERARCHY
ROOT hip
{
  OFFSET 2.45105 82.2337 54.9205
  CHANNELS 6 Xposition Yposition Zposition Zrotation Xrotation Yrotation
  JOINT abdomen
  {
    OFFSET 0 20.6881 -0.73152
    CHANNELS 3 Zrotation Xrotation Yrotation
    JOINT chest
    {
      OFFSET 0 11.7043 -0.48768
      CHANNELS 3 Zrotation Xrotation Yrotation
      JOINT neck
      {
        OFFSET 0 22.1894 -2.19456
        CHANNELS 3 Zrotation Xrotation Yrotation
        JOINT head
        {
          OFFSET -0.24384 7.07133 1.2192
          CHANNELS 3 Zrotation Xrotation Yrotation
          JOINT leftEye
          {
            OFFSET 4.14528 8.04674 8.04672
            CHANNELS 3 Zrotation Xrotation Yrotation
            End Site
            {
              OFFSET 1 0 0
            }
          }
          JOINT rightEye
          {
            OFFSET -3.6576 8.04674 8.04672
            CHANNELS 3 Zrotation Xrotation Yrotation
            End Site
            {
              OFFSET 1 0 0
            }
          }
        }
      }
      JOINT rCollar
      {
        OFFSET -2.68224 19.2634 -4.8768
        CHANNELS 3 Zrotation Xrotation Yrotation
        JOINT rShldr
        {
          OFFSET -8.77824 -1.95073 1.46304
          CHANNELS 3 Zrotation Xrotation Yrotation
          JOINT rForeArm
          {
            OFFSET -28.1742 -1.7115 0.48768
            CHANNELS 3 Zrotation Xrotation Yrotation
            JOINT rHand
            {
              OFFSET -22.5879 0.773209 7.07136
              CHANNELS 3 Zrotation Xrotation Yrotation
              JOINT rThumb1
              {
                OFFSET -1.2192 -0.487915 3.41376
                CHANNELS 3 Zrotation Xrotation Yrotation
                JOINT rThumb2
                {
                  OFFSET -3.37035 -0.52449 3.41376
                  CHANNELS 3 Zrotation Xrotation Yrotation
                  End Site
                  {
                    OFFSET -1.78271 -1.18214 1.43049
                  }
                }
              }
              JOINT rIndex1
              {
                OFFSET -7.75947 0.938293 5.60832
                CHANNELS 3 Zrotation Xrotation Yrotation
                JOINT rIndex2
                {
                  OFFSET -2.54057 -0.884171 1.56538
                  CHANNELS 3 Zrotation Xrotation Yrotation
                  End Site
                  {
                    OFFSET -1.62519 -0.234802 1.16502
                  }
                }
              }
              JOINT rMid1
              {
                OFFSET -8.24714 1.18213 3.41376
                CHANNELS 3 Zrotation Xrotation Yrotation
                JOINT rMid2
                {
                  OFFSET -3.10165 -0.590103 1.0647
                  CHANNELS 3 Zrotation Xrotation Yrotation
                  End Site
                  {
                    OFFSET -2.48547 -0.328903 0.83742
                  }
                }
              }
              JOINT rRing1
              {
                OFFSET -8.82822 0.546677 1.51678
                CHANNELS 3 Zrotation Xrotation Yrotation
                JOINT rRing2
                {
                  OFFSET -2.60934 -0.819778 -0.0198488
                  CHANNELS 3 Zrotation Xrotation Yrotation
                  End Site
                  {
                    OFFSET -2.33842 -0.294052 0.168128
                  }
                }
              }
              JOINT rPinky1
              {
                OFFSET -8.27202 -0.0477905 -0.4584
                CHANNELS 3 Zrotation Xrotation Yrotation
                JOINT rPinky2
                {
                  OFFSET -1.82734 -0.647385 -0.700984
                  CHANNELS 3 Zrotation Xrotation Yrotation
                  End Site
                  {
                    OFFSET -1.69225 -0.51767 -0.607171
                  }
                }
              }
            }
          }
        }
      }
      JOINT lCollar
      {
        OFFSET 2.68224 19.2634 -4.8768
        CHANNELS 3 Zrotation Xrotation Yrotation
        JOINT lShldr
        {
          OFFSET 8.77824 -1.95073 1.46304
          CHANNELS 3 Zrotation Xrotation Yrotation
          JOINT lForeArm
          {
            OFFSET 28.1742 -1.7115 0.48768
            CHANNELS 3 Zrotation Xrotation Yrotation
            JOINT lHand
            {
              OFFSET 22.5879 0.773209 7.07136
              CHANNELS 3 Zrotation Xrotation Yrotation
              JOINT lThumb1
              {
                OFFSET 1.2192 -0.487915 3.41376
                CHANNELS 3 Zrotation Xrotation Yrotation
                JOINT lThumb2
                {
                  OFFSET 3.37035 -0.52449 3.41376
                  CHANNELS 3 Zrotation Xrotation Yrotation
                  End Site
                  {
                    OFFSET 1.78271 -1.18214 1.43049
                  }
                }
              }
              JOINT lIndex1
              {
                OFFSET 7.75947 0.938293 5.60832
                CHANNELS 3 Zrotation Xrotation Yrotation
                JOINT lIndex2
                {
                  OFFSET 2.54057 -0.884171 1.56538
                  CHANNELS 3 Zrotation Xrotation Yrotation
                  End Site
                  {
                    OFFSET 1.62519 -0.234802 1.16502
                  }
                }
              }
              JOINT lMid1
              {
                OFFSET 8.24714 1.18213 3.41376
                CHANNELS 3 Zrotation Xrotation Yrotation
                JOINT lMid2
                {
                  OFFSET 3.10165 -0.590103 1.0647
                  CHANNELS 3 Zrotation Xrotation Yrotation
                  End Site
                  {
                    OFFSET 2.48547 -0.328903 0.83742
                  }
                }
              }
              JOINT lRing1
              {
                OFFSET 8.82822 0.546677 1.51678
                CHANNELS 3 Zrotation Xrotation Yrotation
                JOINT lRing2
                {
                  OFFSET 2.60934 -0.819778 -0.0198488
                  CHANNELS 3 Zrotation Xrotation Yrotation
                  End Site
                  {
                    OFFSET 2.33842 -0.294052 0.168128
                  }
                }
              }
              JOINT lPinky1
              {
                OFFSET 8.27202 -0.0477905 -0.4584
                CHANNELS 3 Zrotation Xrotation Yrotation
                JOINT lPinky2
                {
                  OFFSET 1.82734 -0.647385 -0.700984
                  CHANNELS 3 Zrotation Xrotation Yrotation
                  End Site
                  {
                    OFFSET 1.69225 -0.51767 -0.607171
                  }
                }
              }
            }
          }
        }
      }
    }
  }
  JOINT rButtock
  {
    OFFSET -8.77824 4.35084 1.2192
    CHANNELS 3 Zrotation Xrotation Yrotation
    JOINT rThigh
    {
      OFFSET 0 -1.70687 -2.19456
      CHANNELS 3 Zrotation Xrotation Yrotation
      JOINT rShin
      {
        OFFSET 0 -36.8199 0.73152
        CHANNELS 3 Zrotation Xrotation Yrotation
        JOINT rFoot
        {
          OFFSET 0.73152 -45.1104 -5.12064
          CHANNELS 3 Zrotation Xrotation Yrotation
          End Site
          {
            OFFSET -1.1221 -3.69964 12.103
          }
        }
      }
    }
  }
  JOINT lButtock
  {
    OFFSET 8.77824 4.35084 1.2192
    CHANNELS 3 Zrotation Xrotation Yrotation
    JOINT lThigh
    {
      OFFSET 0 -1.70687 -2.19456
      CHANNELS 3 Zrotation Xrotation Yrotation
      JOINT lShin
      {
        OFFSET 0 -36.8199 0.73152
        CHANNELS 3 Zrotation Xrotation Yrotation
        JOINT lFoot
        {
          OFFSET -0.73152 -45.1104 -5.12064
          CHANNELS 3 Zrotation Xrotation Yrotation
          End Site
          {
            OFFSET 1.1221 -3.69964 12.103
          }
        }
      }
    }
  }
}
MOTION
Frames:	4
Frame Time:	0.00833333
2.30662 82.5774 54.2225 -5.64366 12.0941 -8.04346 4.70711 -5.169 11.8801 -6.34229 -7.86681 2.70245 0.181096 0.138978 -3.01094 9.73185 6.90065 -6.54776 -0 0 0 -0 0 0 -2.43076e-013 -9.47081e-014 -1.36584e-013 -7.22834 31.1751 83.3819 -27.1789 -26.9371 62.2778 -0.449847 19.4884 2.8274 1.94363e-009 2.49399e-009 -7.24642e-010 3.34762e-009 4.29798e-009 -1.26404e-009 1.94365e-009 2.494e-009 -7.24644e-010 7.73091 5.47488 0.417314 1.94364e-009 2.494e-009 -7.24638e-010 2.90554 0.965183 0.102902 1.94365e-009 2.494e-009 -7.24641e-010 10.2786 0.731801 0.0259123 1.94362e-009 2.49399e-009 -7.24639e-010 2.22167 -0.733487 -0.20892 -2.43133e-013 -9.47187e-014 -1.36719e-013 -87.6511 30.7571 11.0701 26.9016 -44.2739 -91.9903 0.0321194 -5.13003 0.722908 -4.57052e-010 -1.50644e-008 2.88728e-009 -8.00916e-010 -2.60452e-008 4.99408e-009 -4.57045e-010 -1.50644e-008 2.8873e-009 -7.73091 5.47488 -0.417314 -4.57049e-010 -1.50644e-008 2.88729e-009 -2.90554 0.965183 -0.102902 -4.57054e-010 -1.50644e-008 2.88728e-009 -10.2786 0.731801 -0.0259123 -4.57043e-010 -1.50644e-008 2.88728e-009 -2.22167 -0.733487 0.20892 -2.03217e-016 0 -3.88251e-019 4.59818 -8.7744 25.5001 0.034406 -1.18695 0.351376 -3.75648 -4.30445 -19.66 2.03217e-016 0 3.88251e-019 -0.308367 -6.66074 -47.6175 0.0855307 13.5942 0.61686 30.9252 -22.0599 64.4312 
2.26494 82.5721 54.2249 -6.03714 12.0551 -7.67524 4.98317 -5.06582 11.9152 -6.35018 -7.93611 2.70585 0.0825626 0.177938 -3.10831 9.95734 6.8295 -6.71824 -0 0 0 -0 0 0 -2.93908e-013 -5.96311e-014 -2.32081e-013 -4.62481 32.288 82.5812 -26.9842 -26.2853 61.3354 -0.250138 14.0978 2.02272 2.80694e-009 3.49833e-009 -1.21936e-009 4.83607e-009 6.02809e-009 -2.12946e-009 2.80696e-009 3.49834e-009 -1.21936e-009 7.73091 5.47488 0.417314 2.80696e-009 3.49834e-009 -1.21935e-009 2.90554 0.965183 0.102902 2.80696e-009 3.49834e-009 -1.21936e-009 10.2786 0.731801 0.0259123 2.80693e-009 3.49833e-009 -1.21936e-009 2.22167 -0.733487 -0.20892 -2.93967e-013 -5.96403e-014 -2.3223e-013 -87.6856 30.9421 11.185 26.9007 -44.2763 -91.995 0.0375805 -5.52464 0.778876 -4.04452e-010 -1.65327e-008 3.1697e-009 -7.12218e-010 -2.85906e-008 5.48406e-009 -4.04445e-010 -1.65327e-008 3.16971e-009 -7.73091 5.47488 -0.417314 -4.0445e-010 -1.65327e-008 3.1697e-009 -2.90554 0.965183 -0.102902 -4.04455e-010 -1.65327e-008 3.1697e-009 -10.2786 0.731801 -0.0259123 -4.04441e-010 -1.65327e-008 3.16969e-009 -2.22167 -0.733487 0.20892 -2.03217e-016 0 -3.88251e-019 4.98837 -8.64489 25.2605 0.0337877 -1.19682 0.347772 -3.7693 -4.34122 -19.6614 2.03217e-016 0 3.88251e-019 0.101752 -6.54766 -47.8136 0.0836579 13.5178 0.613945 30.8084 -21.9697 64.3997 
2.21122 82.5731 54.24 -6.04354 12.0602 -7.42093 4.70536 -5.13544 11.9241 -6.1764 -7.94587 2.72327 -0.0377658 0.130279 -3.19712 10.2679 6.85933 -6.88144 -0 0 0 -0 0 0 -3.17694e-013 1.96241e-014 -3.06357e-013 -2.03542 33.4539 81.5638 -26.843 -25.8384 60.696 -0.11859 9.33269 1.33301 3.05766e-009 4.29869e-009 -1.98421e-009 5.27326e-009 7.41578e-009 -3.44748e-009 3.05768e-009 4.2987e-009 -1.98422e-009 7.73091 5.47488 0.417314 3.05768e-009 4.2987e-009 -1.98421e-009 2.90554 0.965183 0.102902 3.05768e-009 4.2987e-009 -1.98421e-009 10.2786 0.731801 0.0259123 3.05765e-009 4.29869e-009 -1.98421e-009 2.22167 -0.733487 -0.20892 -3.17753e-013 1.96199e-014 -3.06536e-013 -87.5903 31.1729 11.2064 26.9084 -44.2566 -91.9553 0.0419305 -5.80805 0.819143 -2.74232e-010 -1.49557e-008 2.88567e-009 -4.87585e-010 -2.58749e-008 4.99509e-009 -2.74226e-010 -1.49557e-008 2.88569e-009 -7.73091 5.47488 -0.417314 -2.7423e-010 -1.49557e-008 2.88568e-009 -2.90554 0.965183 -0.102902 -2.74234e-010 -1.49557e-008 2.88567e-009 -10.2786 0.731801 -0.0259123 -2.7422e-010 -1.49557e-008 2.88566e-009 -2.22167 -0.733487 0.20892 -2.03217e-016 0 -3.88251e-019 4.97643 -8.64025 25.209 0.0338399 -1.19601 0.347786 -3.81809 -4.40353 -19.8079 2.03217e-016 0 3.88251e-019 0.0814922 -6.57485 -48.0789 0.0853347 13.5439 0.618859 30.8884 -21.9819 64.4565 
2.14456 82.5804 54.2586 -5.80936 12.0926 -7.2255 4.07326 -5.31975 11.8987 -5.8716 -7.91947 2.74537 -0.170045 0.0301253 -3.27503 10.6248 6.95409 -7.02939 -0 0 0 -0 0 0 -3.25437e-013 1.30637e-013 -3.73538e-013 0.727307 34.687 80.2699 -26.7491 -25.5458 60.2453 -0.0356455 4.80836 0.683063 2.96336e-009 5.02657e-009 -2.9648e-009 5.11878e-009 8.68449e-009 -5.1298e-009 2.96338e-009 5.02658e-009 -2.96481e-009 7.73091 5.47488 0.417314 2.96337e-009 5.02657e-009 -2.96479e-009 2.90554 0.965183 0.102902 2.96338e-009 5.02657e-009 -2.9648e-009 10.2786 0.731801 0.0259123 2.96336e-009 5.02657e-009 -2.9648e-009 2.22167 -0.733487 -0.20892 -3.25498e-013 1.3064e-013 -3.73762e-013 -87.3791 31.4502 11.1498 26.9215 -44.2228 -91.8875 0.0452773 -6.01892 0.849136 -8.69572e-011 -1.14851e-008 2.25036e-009 -1.63281e-010 -1.98885e-008 3.89916e-009 -8.69547e-011 -1.14851e-008 2.25038e-009 -7.73091 5.47488 -0.417314 -8.69571e-011 -1.14851e-008 2.25037e-009 -2.90554 0.965183 -0.102902 -8.69602e-011 -1.14851e-008 2.25036e-009 -10.2786 0.731801 -0.0259123 -8.69459e-011 -1.14851e-008 2.25035e-009 -2.22167 -0.733487 0.20892 -2.03217e-016 0 -3.88251e-019 4.7125 -8.71183 25.273 0.0343224 -1.18837 0.350132 -3.89222 -4.48339 -20.0538 2.03217e-016 0 3.88251e-019 -0.211041 -6.6865 -48.4019 0.0892812 13.635 0.629275 31.0999 -22.0603 64.5738 
